<svg width="349" height="145" viewBox="0 0 349 145" fill="none" xmlns="http://www.w3.org/2000/svg">
<path d="M0 25C0 19.4771 4.47715 15 10 15H324C329.523 15 334 19.4772 334 25V120C334 125.523 329.523 130 324 130H10C4.47716 130 0 125.523 0 120V25Z" fill="url(#paint0_linear)"/>
<path d="M94 22C94 23.1046 93.1046 24 92 24C90.8954 24 90 23.1046 90 22C90 20.8954 90.8954 20 92 20C93.1046 20 94 20.8954 94 22Z" fill="url(#paint1_linear)"/>
<path d="M108 22C108 23.1046 107.105 24 106 24C104.895 24 104 23.1046 104 22C104 20.8954 104.895 20 106 20C107.105 20 108 20.8954 108 22Z" fill="url(#paint2_linear)"/>
<path d="M122 22C122 23.1046 121.105 24 120 24C118.895 24 118 23.1046 118 22C118 20.8954 118.895 20 120 20C121.105 20 122 20.8954 122 22Z" fill="url(#paint3_linear)"/>
<path d="M136 22C136 23.1046 135.105 24 134 24C132.895 24 132 23.1046 132 22C132 20.8954 132.895 20 134 20C135.105 20 136 20.8954 136 22Z" fill="url(#paint4_linear)"/>
<path d="M150 22C150 23.1046 149.105 24 148 24C146.895 24 146 23.1046 146 22C146 20.8954 146.895 20 148 20C149.105 20 150 20.8954 150 22Z" fill="url(#paint5_linear)"/>
<path d="M164 22C164 23.1046 163.105 24 162 24C160.895 24 160 23.1046 160 22C160 20.8954 160.895 20 162 20C163.105 20 164 20.8954 164 22Z" fill="url(#paint6_linear)"/>
<path d="M94 36C94 37.1046 93.1046 38 92 38C90.8954 38 90 37.1046 90 36C90 34.8954 90.8954 34 92 34C93.1046 34 94 34.8954 94 36Z" fill="url(#paint7_linear)"/>
<path d="M108 36C108 37.1046 107.105 38 106 38C104.895 38 104 37.1046 104 36C104 34.8954 104.895 34 106 34C107.105 34 108 34.8954 108 36Z" fill="url(#paint8_linear)"/>
<path d="M122 36C122 37.1046 121.105 38 120 38C118.895 38 118 37.1046 118 36C118 34.8954 118.895 34 120 34C121.105 34 122 34.8954 122 36Z" fill="url(#paint9_linear)"/>
<path d="M136 36C136 37.1046 135.105 38 134 38C132.895 38 132 37.1046 132 36C132 34.8954 132.895 34 134 34C135.105 34 136 34.8954 136 36Z" fill="url(#paint10_linear)"/>
<path d="M150 36C150 37.1046 149.105 38 148 38C146.895 38 146 37.1046 146 36C146 34.8954 146.895 34 148 34C149.105 34 150 34.8954 150 36Z" fill="url(#paint11_linear)"/>
<path d="M164 36C164 37.1046 163.105 38 162 38C160.895 38 160 37.1046 160 36C160 34.8954 160.895 34 162 34C163.105 34 164 34.8954 164 36Z" fill="url(#paint12_linear)"/>
<path d="M94 50C94 51.1046 93.1046 52 92 52C90.8954 52 90 51.1046 90 50C90 48.8954 90.8954 48 92 48C93.1046 48 94 48.8954 94 50Z" fill="url(#paint13_linear)"/>
<path d="M108 50C108 51.1046 107.105 52 106 52C104.895 52 104 51.1046 104 50C104 48.8954 104.895 48 106 48C107.105 48 108 48.8954 108 50Z" fill="url(#paint14_linear)"/>
<path d="M122 50C122 51.1046 121.105 52 120 52C118.895 52 118 51.1046 118 50C118 48.8954 118.895 48 120 48C121.105 48 122 48.8954 122 50Z" fill="url(#paint15_linear)"/>
<path d="M136 50C136 51.1046 135.105 52 134 52C132.895 52 132 51.1046 132 50C132 48.8954 132.895 48 134 48C135.105 48 136 48.8954 136 50Z" fill="url(#paint16_linear)"/>
<path d="M150 50C150 51.1046 149.105 52 148 52C146.895 52 146 51.1046 146 50C146 48.8954 146.895 48 148 48C149.105 48 150 48.8954 150 50Z" fill="url(#paint17_linear)"/>
<path d="M164 50C164 51.1046 163.105 52 162 52C160.895 52 160 51.1046 160 50C160 48.8954 160.895 48 162 48C163.105 48 164 48.8954 164 50Z" fill="url(#paint18_linear)"/>
<path d="M276.5 0C313.809 0 344.586 27.7646 349 63.6129H313.615C309.586 46.9761 294.498 34.6129 276.5 34.6129C258.502 34.6129 243.414 46.9761 239.385 63.6129H204C208.414 27.7646 239.191 0 276.5 0Z" fill="url(#paint19_linear)"/>
<path d="M313.615 81.3871H349C344.586 117.235 313.809 145 276.5 145C239.191 145 208.414 117.235 204 81.3871H239.385C243.414 98.0239 258.502 110.387 276.5 110.387C294.498 110.387 309.586 98.0239 313.615 81.3871Z" fill="url(#paint20_linear)"/>
<path d="M276.5 96.3548C289.773 96.3548 300.534 85.6747 300.534 72.5C300.534 59.3253 289.773 48.6452 276.5 48.6452C263.227 48.6452 252.466 59.3253 252.466 72.5C252.466 85.6747 263.227 96.3548 276.5 96.3548Z" fill="url(#paint21_linear)"/>
<defs>
<linearGradient id="paint0_linear" x1="174.5" y1="0" x2="174.5" y2="145" gradientUnits="userSpaceOnUse">
<stop stop-color="white" stop-opacity="0.3"/>
<stop offset="1" stop-color="white" stop-opacity="0"/>
</linearGradient>
<linearGradient id="paint1_linear" x1="174.5" y1="0" x2="174.5" y2="145" gradientUnits="userSpaceOnUse">
<stop stop-color="white" stop-opacity="0.3"/>
<stop offset="1" stop-color="white" stop-opacity="0"/>
</linearGradient>
<linearGradient id="paint2_linear" x1="174.5" y1="0" x2="174.5" y2="145" gradientUnits="userSpaceOnUse">
<stop stop-color="white" stop-opacity="0.3"/>
<stop offset="1" stop-color="white" stop-opacity="0"/>
</linearGradient>
<linearGradient id="paint3_linear" x1="174.5" y1="0" x2="174.5" y2="145" gradientUnits="userSpaceOnUse">
<stop stop-color="white" stop-opacity="0.3"/>
<stop offset="1" stop-color="white" stop-opacity="0"/>
</linearGradient>
<linearGradient id="paint4_linear" x1="174.5" y1="0" x2="174.5" y2="145" gradientUnits="userSpaceOnUse">
<stop stop-color="white" stop-opacity="0.3"/>
<stop offset="1" stop-color="white" stop-opacity="0"/>
</linearGradient>
<linearGradient id="paint5_linear" x1="174.5" y1="0" x2="174.5" y2="145" gradientUnits="userSpaceOnUse">
<stop stop-color="white" stop-opacity="0.3"/>
<stop offset="1" stop-color="white" stop-opacity="0"/>
</linearGradient>
<linearGradient id="paint6_linear" x1="174.5" y1="0" x2="174.5" y2="145" gradientUnits="userSpaceOnUse">
<stop stop-color="white" stop-opacity="0.3"/>
<stop offset="1" stop-color="white" stop-opacity="0"/>
</linearGradient>
<linearGradient id="paint7_linear" x1="174.5" y1="0" x2="174.5" y2="145" gradientUnits="userSpaceOnUse">
<stop stop-color="white" stop-opacity="0.3"/>
<stop offset="1" stop-color="white" stop-opacity="0"/>
</linearGradient>
<linearGradient id="paint8_linear" x1="174.5" y1="0" x2="174.5" y2="145" gradientUnits="userSpaceOnUse">
<stop stop-color="white" stop-opacity="0.3"/>
<stop offset="1" stop-color="white" stop-opacity="0"/>
</linearGradient>
<linearGradient id="paint9_linear" x1="174.5" y1="0" x2="174.5" y2="145" gradientUnits="userSpaceOnUse">
<stop stop-color="white" stop-opacity="0.3"/>
<stop offset="1" stop-color="white" stop-opacity="0"/>
</linearGradient>
<linearGradient id="paint10_linear" x1="174.5" y1="0" x2="174.5" y2="145" gradientUnits="userSpaceOnUse">
<stop stop-color="white" stop-opacity="0.3"/>
<stop offset="1" stop-color="white" stop-opacity="0"/>
</linearGradient>
<linearGradient id="paint11_linear" x1="174.5" y1="0" x2="174.5" y2="145" gradientUnits="userSpaceOnUse">
<stop stop-color="white" stop-opacity="0.3"/>
<stop offset="1" stop-color="white" stop-opacity="0"/>
</linearGradient>
<linearGradient id="paint12_linear" x1="174.5" y1="0" x2="174.5" y2="145" gradientUnits="userSpaceOnUse">
<stop stop-color="white" stop-opacity="0.3"/>
<stop offset="1" stop-color="white" stop-opacity="0"/>
</linearGradient>
<linearGradient id="paint13_linear" x1="174.5" y1="0" x2="174.5" y2="145" gradientUnits="userSpaceOnUse">
<stop stop-color="white" stop-opacity="0.3"/>
<stop offset="1" stop-color="white" stop-opacity="0"/>
</linearGradient>
<linearGradient id="paint14_linear" x1="174.5" y1="0" x2="174.5" y2="145" gradientUnits="userSpaceOnUse">
<stop stop-color="white" stop-opacity="0.3"/>
<stop offset="1" stop-color="white" stop-opacity="0"/>
</linearGradient>
<linearGradient id="paint15_linear" x1="174.5" y1="0" x2="174.5" y2="145" gradientUnits="userSpaceOnUse">
<stop stop-color="white" stop-opacity="0.3"/>
<stop offset="1" stop-color="white" stop-opacity="0"/>
</linearGradient>
<linearGradient id="paint16_linear" x1="174.5" y1="0" x2="174.5" y2="145" gradientUnits="userSpaceOnUse">
<stop stop-color="white" stop-opacity="0.3"/>
<stop offset="1" stop-color="white" stop-opacity="0"/>
</linearGradient>
<linearGradient id="paint17_linear" x1="174.5" y1="0" x2="174.5" y2="145" gradientUnits="userSpaceOnUse">
<stop stop-color="white" stop-opacity="0.3"/>
<stop offset="1" stop-color="white" stop-opacity="0"/>
</linearGradient>
<linearGradient id="paint18_linear" x1="174.5" y1="0" x2="174.5" y2="145" gradientUnits="userSpaceOnUse">
<stop stop-color="white" stop-opacity="0.3"/>
<stop offset="1" stop-color="white" stop-opacity="0"/>
</linearGradient>
<linearGradient id="paint19_linear" x1="174.5" y1="0" x2="174.5" y2="145" gradientUnits="userSpaceOnUse">
<stop stop-color="white" stop-opacity="0.3"/>
<stop offset="1" stop-color="white" stop-opacity="0"/>
</linearGradient>
<linearGradient id="paint20_linear" x1="174.5" y1="0" x2="174.5" y2="145" gradientUnits="userSpaceOnUse">
<stop stop-color="white" stop-opacity="0.3"/>
<stop offset="1" stop-color="white" stop-opacity="0"/>
</linearGradient>
<linearGradient id="paint21_linear" x1="174.5" y1="0" x2="174.5" y2="145" gradientUnits="userSpaceOnUse">
<stop stop-color="white" stop-opacity="0.3"/>
<stop offset="1" stop-color="white" stop-opacity="0"/>
</linearGradient>
</defs>
</svg>
